<?xml version="1.0" standalone="no"?>
<!DOCTYPE svg PUBLIC "-//W3C//DTD SVG 20010904//EN"
 "http://www.w3.org/TR/2001/REC-SVG-20010904/DTD/svg10.dtd">
<svg version="1.0" xmlns="http://www.w3.org/2000/svg"
 width="720.000000pt" height="720.000000pt" viewBox="0 0 720.000000 720.000000"
 preserveAspectRatio="xMidYMid meet">

<g transform="translate(0.000000,720.000000) scale(0.100000,-0.100000)"
fill="#000000" stroke="none">
<path d="M3477 7193 c-9 -2 -14 -9 -11 -15 4 -6 -1 -6 -14 1 -14 7 -23 8 -27
1 -4 -6 -11 -8 -16 -5 -5 4 -9 -2 -10 -12 0 -10 -3 -13 -5 -6 -5 12 -19 10
-59 -7 -11 -5 -29 -11 -40 -13 -11 -2 -19 -9 -17 -16 1 -7 -2 -10 -8 -6 -5 3
-10 2 -10 -4 0 -5 6 -12 13 -14 7 -3 5 -6 -5 -6 -11 -1 -18 6 -18 17 0 12 -8
17 -30 17 -32 0 -41 -21 -12 -28 13 -4 11 -5 -5 -6 -13 0 -23 5 -23 12 0 9 -2
9 -8 -1 -5 -7 -16 -10 -25 -6 -15 5 -21 -5 -19 -36 0 -3 -21 -5 -46 -5 -49 1
-92 -12 -92 -27 0 -5 -11 -6 -25 -2 -19 5 -25 2 -25 -10 0 -13 -4 -15 -19 -7
-14 8 -23 5 -40 -10 -11 -11 -21 -15 -21 -10 0 6 -16 -6 -35 -26 -25 -25 -35
-31 -35 -20 0 27 -17 20 -25 -10 -4 -16 -10 -22 -12 -15 -6 14 -43 16 -43 2 0
-5 -15 -10 -32 -11 -18 0 -27 -3 -20 -6 6 -2 9 -9 6 -14 -3 -6 -11 -5 -20 2
-11 9 -14 8 -14 -4 0 -17 -43 -32 -48 -17 -2 6 -8 10 -13 10 -4 0 -6 -7 -3
-15 4 -8 13 -15 21 -15 12 0 12 -2 -1 -15 -8 -8 -17 -15 -20 -15 -3 0 -6 7 -6
15 0 8 -5 15 -11 15 -6 0 -9 -7 -5 -15 5 -15 -26 -39 -38 -28 -3 3 -6 -4 -6
-16 0 -13 -4 -20 -11 -16 -6 4 -8 14 -5 24 4 11 1 10 -11 -4 -21 -24 -48 -37
-58 -27 -12 12 -53 9 -48 -4 2 -7 -2 -25 -11 -41 -13 -24 -15 -25 -16 -8 -1
11 -4 14 -7 8 -2 -7 -16 -13 -29 -13 -16 0 -24 -6 -24 -17 0 -13 -4 -11 -21 8
l-21 24 4 -23 c2 -20 -4 -26 -37 -38 -52 -18 -75 -18 -75 1 0 8 -5 15 -11 15
-6 0 -8 -7 -5 -16 5 -13 2 -15 -15 -11 -14 4 -19 2 -16 -7 3 -7 1 -19 -4 -27
-7 -12 -9 -11 -9 2 0 9 -9 19 -20 22 -11 3 -18 1 -14 -4 8 -14 -40 -11 -56 4
-12 10 -12 9 -2 -4 10 -14 10 -18 -3 -23 -8 -3 -15 -1 -15 4 0 6 -4 10 -10 10
-5 0 -7 -7 -3 -16 5 -14 3 -15 -15 -5 -15 8 -22 8 -22 1 0 -5 5 -10 11 -10 5
0 7 -5 4 -10 -4 -6 -15 -1 -26 12 -12 13 -18 17 -14 11 4 -10 -8 -12 -49 -9
-31 3 -58 1 -61 -4 -3 -5 -17 -6 -32 -4 -15 3 -48 7 -73 9 -25 2 -46 4 -47 5
-8 6 -63 4 -63 -2 0 -5 11 -8 25 -8 14 0 25 -5 25 -11 0 -5 4 -7 10 -4 6 4 11
-8 11 -27 l2 -33 4 30 c7 51 21 50 29 -1 4 -27 9 -43 11 -36 8 22 29 13 29
-13 0 -18 -3 -22 -13 -14 -6 6 -17 8 -22 5 -5 -4 -12 8 -14 26 -3 28 -4 26 -6
-12 -1 -40 -3 -43 -15 -27 -16 20 -101 24 -109 5 -3 -7 -6 -4 -6 7 -1 15 -4
16 -13 7 -18 -18 -26 -15 -31 11 l-4 22 -2 -22 c-1 -17 -7 -23 -25 -23 -13 0
-26 -5 -28 -11 -3 -9 -9 -9 -25 0 -32 17 -42 14 -36 -11 4 -20 3 -21 -7 -5
-13 21 -50 23 -50 2 0 -18 -36 -20 -43 -2 -3 7 -6 5 -6 -5 -1 -21 -17 -24 -25
-5 -4 6 -4 2 -2 -10 3 -18 -1 -23 -16 -23 -14 0 -18 -5 -15 -15 4 -8 2 -17 -3
-20 -4 -3 -11 1 -13 7 -3 8 -6 6 -6 -4 -1 -10 -6 -18 -13 -18 -6 0 -3 -7 8
-15 16 -12 17 -14 3 -15 -18 0 -29 -20 -29 -51 0 -11 -5 -30 -11 -42 -13 -24
-19 -148 -7 -141 7 5 10 -12 12 -78 1 -15 9 -36 18 -48 16 -17 16 -20 2 -20
-14 0 -14 -2 0 -16 9 -8 16 -20 16 -26 0 -5 7 -8 15 -4 13 4 13 2 5 -14 -13
-25 -13 -33 2 -24 6 4 8 3 4 -4 -3 -6 1 -17 9 -25 8 -9 15 -22 15 -30 0 -25
26 -78 34 -70 4 5 6 1 4 -7 -2 -10 3 -14 16 -12 18 3 18 2 2 -13 -17 -18 -20
-26 -8 -24 4 1 13 1 21 0 11 -1 11 -4 0 -18 -11 -13 -11 -17 -1 -20 6 -3 12
-13 12 -23 0 -15 40 -40 73 -44 9 -1 11 -16 1 -24 -4 -4 -4 -1 0 5 5 9 2 11
-8 7 -12 -5 -6 -16 28 -50 25 -24 50 -44 56 -44 6 0 9 -4 6 -9 -8 -12 120 -99
211 -145 70 -35 133 -47 133 -25 0 5 -3 8 -7 6 -5 -3 -9 6 -10 20 0 15 2 21 6
14 5 -7 12 4 20 28 16 54 31 61 32 14 1 -21 3 -30 6 -20 7 27 -6 89 -18 82 -5
-4 -9 10 -9 32 1 36 2 37 15 19 17 -23 19 -18 5 18 -8 21 -7 24 7 19 11 -4 14
-3 9 5 -4 7 -2 12 4 12 7 0 9 8 5 20 -5 14 -2 20 9 20 9 0 16 -8 17 -17 0 -12
4 -8 11 10 5 15 15 27 21 27 7 1 5 6 -4 13 -14 11 -14 14 2 31 17 18 18 18 12
-2 -4 -17 -1 -20 15 -15 23 6 20 26 -10 57 -24 26 -23 35 6 46 13 5 26 15 29
22 3 8 6 5 6 -7 1 -17 3 -18 12 -5 9 13 10 13 6 0 -2 -8 -10 -14 -16 -12 -6 1
-11 -2 -11 -8 0 -5 5 -10 10 -10 6 0 10 -7 10 -16 0 -8 -5 -12 -10 -9 -5 3
-10 -1 -10 -10 0 -9 4 -14 9 -11 5 4 11 0 14 -6 2 -7 12 4 22 25 11 20 22 37
25 37 7 0 -3 72 -14 105 -8 20 -8 20 8 0 16 -18 16 -18 10 14 -5 25 -4 32 5
27 6 -4 9 -11 6 -16 -9 -15 12 -20 24 -6 9 11 7 18 -12 32 -19 16 -43 54 -33
54 2 0 28 -25 58 -55 58 -58 62 -65 24 -40 l-24 16 1 -68 c0 -37 2 -60 4 -50
3 9 11 17 18 17 9 0 12 6 9 15 -4 8 -1 15 6 15 6 0 8 5 4 12 -4 7 -3 8 4 4 9
-5 52 21 117 72 28 22 66 32 129 33 37 1 55 7 72 24 17 17 20 25 11 34 -16 16
-1 14 34 -4 34 -18 57 -11 38 11 -18 22 8 17 31 -6 12 -12 20 -15 20 -7 1 7 6
5 14 -6 8 -10 18 -17 22 -16 5 1 17 -1 27 -6 10 -4 29 -3 44 4 22 10 29 9 49
-10 13 -13 24 -27 24 -33 0 -5 10 -20 21 -32 15 -16 19 -29 14 -41 -7 -16 -9
-16 -12 -1 -8 33 -28 26 -30 -10 -1 -19 -7 -40 -12 -45 -14 -14 -14 -44 -1
-49 6 -2 12 -12 14 -23 3 -15 -2 -20 -21 -21 -17 -2 -23 2 -19 12 3 8 1 14 -4
14 -6 0 -10 -8 -10 -18 0 -10 -7 -19 -15 -19 -8 0 -15 4 -15 9 0 12 -28 10
-36 -4 -5 -7 -3 -8 7 -3 12 8 12 6 1 -8 -12 -14 -16 -15 -29 -2 -18 19 -23 19
-23 -1 0 -8 4 -13 9 -10 14 9 19 -17 7 -30 -6 -6 -20 -9 -31 -7 -15 3 -13 0 8
-12 15 -8 27 -18 27 -20 0 -7 -64 7 -70 15 -3 4 -22 9 -42 12 -29 3 -35 1 -27
-8 6 -7 16 -11 24 -8 7 3 16 0 21 -7 5 -9 2 -10 -9 -6 -19 7 -23 -9 -4 -16 9
-4 9 -8 -2 -15 -11 -8 -11 -10 0 -14 8 -3 -3 -10 -24 -17 -39 -13 -60 -6 -63
19 -1 6 -2 18 -4 28 -1 10 -3 12 -7 5 -2 -7 -17 -13 -31 -13 -21 0 -24 -3 -12
-10 8 -5 11 -12 7 -17 -7 -7 -22 8 -30 31 -7 20 -27 -6 -21 -28 5 -20 0 -25
-27 -35 -39 -13 -39 -13 -39 -1 0 6 11 10 25 10 17 0 25 5 25 18 0 21 -20 54
-20 34 0 -7 -5 -10 -11 -6 -8 4 -9 -1 -4 -16 6 -19 4 -22 -9 -17 -9 4 -17 2
-17 -3 -1 -6 -3 -14 -4 -20 -1 -5 -3 -14 -4 -20 0 -5 -7 -10 -15 -10 -8 0 -13
-6 -12 -13 3 -22 34 -59 44 -53 5 3 15 -1 22 -9 15 -18 40 -20 40 -4 0 7 10 9
25 7 14 -3 25 -2 25 2 0 4 11 11 25 14 15 4 25 13 24 24 0 10 -3 12 -6 5 -2
-7 -11 -13 -18 -13 -7 0 -16 6 -18 13 -4 10 -6 10 -6 0 -1 -18 -38 -16 -44 1
-4 10 0 12 14 9 11 -3 19 0 19 7 0 8 16 11 50 8 47 -3 66 5 38 15 -7 2 -10 8
-6 12 4 4 15 2 25 -6 9 -8 14 -9 10 -3 -7 12 13 24 39 24 24 0 16 -20 -8 -21
-22 0 -22 -1 -3 -9 11 -5 29 -9 40 -9 17 -1 18 1 5 10 -12 9 -12 10 -1 7 22
-6 25 -28 4 -28 -10 0 -26 -9 -36 -20 -17 -20 -16 -20 10 -13 36 10 123 6 138
-7 6 -5 15 -7 18 -3 4 3 9 -1 13 -10 3 -9 12 -13 20 -10 8 3 14 1 14 -3 0 -5
12 -15 28 -21 15 -7 33 -22 40 -34 8 -12 9 -18 3 -14 -6 3 -11 2 -11 -4 0 -5
7 -11 16 -13 13 -3 13 -5 1 -23 -11 -14 -25 -19 -58 -18 l-44 2 30 -14 c17 -8
35 -14 41 -15 12 0 27 -40 19 -49 -3 -2 -5 0 -5 5 0 10 -169 9 -232 0 -21 -4
-38 -4 -38 -1 0 18 32 64 47 69 11 3 9 4 -6 3 -16 -1 -29 -12 -40 -34 -14 -28
-21 -33 -51 -31 -19 1 -42 6 -51 11 -12 7 -22 4 -37 -11 -11 -11 -18 -23 -15
-26 4 -3 -6 -6 -21 -6 -24 0 -26 3 -20 26 5 19 3 25 -4 20 -14 -8 -13 -74 1
-83 5 -3 4 -8 -2 -13 -7 -3 -13 -28 -14 -53 -1 -26 -5 -47 -9 -47 -5 0 -8 -9
-8 -21 0 -13 -4 -18 -12 -13 -7 5 -9 2 -5 -9 3 -8 -1 -21 -9 -27 -11 -10 -14
-9 -14 4 0 14 -4 15 -20 6 -19 -10 -25 -6 -20 15 1 6 -10 -1 -24 -14 -14 -14
-26 -21 -26 -17 0 5 -7 3 -15 -4 -8 -7 -12 -16 -9 -21 3 -5 0 -9 -5 -9 -6 0
-11 -7 -11 -15 0 -8 -6 -15 -14 -15 -7 0 -16 -15 -20 -32 -5 -26 -9 -30 -16
-18 -7 11 -10 11 -10 2 0 -7 -4 -10 -10 -7 -5 3 -10 2 -10 -4 0 -5 4 -13 10
-16 16 -10 12 -28 -5 -21 -9 3 -15 0 -15 -9 0 -8 6 -15 14 -15 8 0 17 -7 20
-16 10 -25 7 -34 -9 -28 -8 4 -13 10 -10 14 3 5 0 12 -6 16 -9 5 -10 -1 -5
-20 6 -24 4 -26 -25 -26 -28 0 -29 -1 -15 -16 21 -20 20 -24 -4 -19 -12 2 -20
-2 -20 -10 0 -7 -7 -15 -15 -19 -8 -3 -15 -1 -15 5 0 6 -4 7 -10 4 -5 -3 -10
-22 -10 -41 0 -27 -4 -34 -20 -34 -14 0 -20 -7 -20 -21 0 -17 -5 -20 -25 -17
-23 5 -30 -2 -26 -25 0 -4 -2 -6 -6 -6 -5 1 -17 1 -28 -1 l-20 -1 20 -9 20 -9
-20 -1 c-11 -1 -15 -4 -8 -6 7 -3 9 -12 6 -20 -5 -13 -7 -13 -14 -2 -6 9 -9 4
-9 -14 0 -34 3 -44 13 -40 4 1 7 -2 7 -8 0 -5 -5 -10 -11 -10 -6 0 -4 -7 5
-15 8 -8 19 -15 25 -15 6 0 11 -7 11 -16 0 -12 7 -15 31 -12 20 3 33 0 36 -9
3 -8 14 -11 29 -7 15 4 24 2 24 -5 0 -7 -8 -11 -17 -9 -23 4 -29 -70 -7 -79 8
-3 13 -12 10 -19 -3 -8 -1 -14 4 -14 6 0 10 -9 10 -21 0 -13 -4 -18 -12 -13
-7 4 -8 3 -4 -4 5 -9 13 -9 27 -1 12 6 23 8 27 5 3 -3 1 -6 -5 -6 -6 0 -14 -7
-17 -16 -3 -8 -2 -12 4 -9 6 3 10 2 10 -4 0 -6 7 -8 15 -5 11 5 13 2 9 -9 -6
-16 24 -77 38 -77 4 0 8 -13 8 -28 0 -21 -7 -32 -26 -40 -15 -7 -23 -8 -19 -2
4 6 -7 13 -24 16 -36 7 -36 6 -16 44 14 27 14 30 -7 50 -13 12 -52 36 -88 53
-56 28 -75 32 -140 31 -85 0 -160 -27 -180 -65 -10 -19 -10 -24 4 -34 8 -7 14
-14 11 -17 -3 -2 19 -15 48 -28 52 -23 107 -32 107 -17 0 4 14 7 31 7 17 0 39
4 49 10 13 7 19 6 24 -6 3 -9 12 -14 19 -11 16 6 57 -10 57 -22 0 -6 -11 -22
-26 -36 -14 -14 -22 -30 -19 -35 3 -6 0 -10 -7 -10 -9 0 -9 -3 -2 -8 6 -4 16
-16 22 -27 8 -17 5 -25 -20 -50 -23 -24 -26 -31 -14 -33 29 -6 17 -30 -21 -41
l-38 -10 37 5 c35 4 61 -9 36 -19 -7 -3 -3 -6 9 -6 12 -1 25 -5 28 -11 3 -5
16 -10 28 -10 16 0 18 -3 9 -12 -19 -19 -14 -26 13 -21 14 3 31 -1 40 -11 9
-9 13 -17 8 -17 -4 -1 5 -4 20 -8 l28 -6 -23 -24 c-17 -19 -18 -23 -5 -18 12
4 17 1 18 -11 0 -10 3 -12 6 -4 2 6 13 12 23 12 11 0 23 8 29 17 8 16 11 14
22 -10 7 -15 16 -27 21 -27 5 0 7 -4 4 -9 -7 -11 68 -73 78 -64 3 3 6 -3 6
-15 0 -12 -5 -22 -11 -22 -5 0 -8 4 -5 9 3 5 -3 11 -14 14 -15 4 -20 0 -20
-14 0 -10 -5 -19 -11 -19 -6 0 -9 7 -5 15 4 11 -1 15 -17 15 -16 0 -18 -3 -8
-9 9 -6 10 -11 2 -15 -14 -9 -33 2 -26 15 4 5 4 9 1 9 -3 0 -10 -10 -17 -21
-9 -17 -8 -20 2 -17 8 3 19 -1 26 -8 15 -15 17 -28 3 -19 -6 3 -7 -1 -4 -9 3
-9 1 -16 -5 -16 -6 0 -11 -12 -11 -26 0 -24 -2 -25 -17 -13 -13 11 -17 11 -20
2 -3 -7 -14 -13 -26 -13 -18 0 -19 -2 -7 -10 8 -5 25 -10 37 -10 29 0 70 -35
77 -66 4 -15 14 -24 26 -24 10 0 21 -4 25 -9 7 -13 65 7 65 22 0 8 4 7 12 -1
8 -8 16 -6 30 10 20 23 17 51 -10 80 -13 16 -13 18 2 24 9 3 16 10 16 15 0 5
-11 4 -25 -1 -26 -10 -28 -8 -25 27 1 17 -3 20 -19 16 -17 -4 -21 -1 -21 21 0
15 4 25 9 22 5 -3 8 2 7 11 0 9 12 22 33 30 29 12 33 12 28 0 -3 -9 2 -17 14
-20 21 -6 26 8 7 17 -7 3 0 4 15 1 16 -3 39 -17 52 -31 16 -17 25 -21 28 -12
3 7 6 -2 6 -19 1 -36 14 -43 31 -15 11 16 11 15 5 -2 -3 -11 0 -23 7 -28 10
-6 10 -8 1 -8 -7 0 -13 -4 -13 -10 0 -5 5 -10 11 -10 14 0 33 -20 43 -45 8
-19 8 -19 19 3 5 12 13 22 17 22 10 0 0 -52 -13 -67 -6 -9 -6 -13 3 -13 6 0
10 -6 7 -12 -2 -7 -9 -12 -15 -11 -5 1 -13 -21 -17 -50 -9 -57 -8 -54 -20 -81
-5 -12 -3 -21 6 -27 11 -7 9 -9 -7 -9 -15 0 -26 -10 -35 -32 -7 -18 -23 -44
-36 -57 -21 -21 -23 -22 -23 -5 0 14 -2 16 -9 6 -7 -11 -10 -10 -15 3 -10 27
-8 28 32 22 34 -5 35 -4 12 6 -14 6 -28 16 -32 22 -9 13 -48 -28 -48 -51 0
-13 3 -14 14 -5 12 11 16 1 22 -58 3 -39 10 -71 14 -71 5 0 6 9 3 20 -4 14 0
20 11 20 22 0 21 -37 -2 -44 -11 -4 -18 -17 -19 -33 l-2 -28 11 25 10 25 8
-28 c6 -18 4 -37 -6 -55 -16 -30 -19 -56 -5 -48 5 3 12 -1 15 -10 3 -8 11 -12
17 -8 6 3 3 -5 -6 -20 -17 -26 -17 -26 10 -26 26 0 27 1 23 50 -1 28 0 50 5
50 4 0 7 -33 7 -72 -1 -55 -3 -69 -11 -55 -5 9 -19 17 -29 17 -16 0 -20 -7
-21 -32 -1 -18 -3 -25 -6 -15 -2 9 -9 17 -14 17 -5 0 -9 -8 -10 -17 -3 -63 -4
-63 -33 -63 -8 0 -17 8 -19 18 -3 10 -5 6 -6 -11 -1 -17 3 -26 9 -22 6 3 10
-4 9 -17 0 -13 -3 -17 -6 -10 -2 6 -11 12 -20 12 -10 0 -12 -6 -8 -21 6 -18 4
-20 -13 -15 -17 6 -19 3 -15 -12 2 -11 -1 -23 -8 -28 -9 -5 -11 -2 -6 9 3 10
2 17 -2 17 -5 0 -12 -6 -14 -12 -3 -8 -6 -5 -6 5 -2 30 -21 8 -21 -23 0 -16
-5 -32 -11 -36 -8 -5 -10 1 -6 18 5 19 2 28 -9 32 -13 5 -16 0 -12 -28 2 -19
0 -32 -4 -30 -4 3 -8 22 -8 42 -1 35 -1 36 -16 17 -8 -11 -13 -30 -11 -43 2
-12 0 -25 -6 -29 -6 -3 -7 -1 -3 5 4 7 2 12 -3 12 -6 0 -11 -13 -11 -30 0 -36
-15 -40 -24 -6 -3 13 -15 26 -26 29 -16 4 -20 0 -20 -18 0 -13 -7 -25 -15 -29
-8 -3 -15 -9 -14 -13 4 -22 -2 -42 -14 -45 -10 -2 -10 -8 1 -28 13 -23 13 -23
9 -3 -3 13 -1 23 4 23 10 0 12 -34 3 -79 -8 -39 -22 -41 -20 -1 0 16 -3 28 -8
27 -5 -1 -15 14 -21 33 l-12 35 -5 -27 c-3 -15 -2 -25 3 -23 9 6 16 -18 18
-67 1 -20 -3 -39 -9 -43 -7 -4 -9 2 -4 19 5 23 3 26 -17 24 -13 -2 -27 -10
-31 -18 -4 -11 -10 -6 -18 18 -7 18 -15 30 -18 27 -8 -8 -14 -62 -16 -142 0
-35 -2 -63 -4 -63 -1 0 -10 18 -19 40 -10 22 -21 40 -25 40 -5 0 -8 7 -8 15 0
8 -5 15 -11 15 -6 0 -9 7 -5 15 3 8 1 15 -4 15 -6 0 -10 -15 -10 -32 0 -25 3
-29 10 -18 7 11 10 6 10 -20 -1 -31 -2 -33 -14 -18 -7 10 -16 15 -19 11 -4 -3
-7 -1 -7 6 0 7 -4 9 -10 6 -6 -3 -1 -15 11 -28 12 -12 25 -31 29 -42 8 -19 9
-19 9 3 1 29 21 19 22 -11 0 -12 3 -16 6 -9 13 32 22 6 16 -48 -4 -42 -2 -60
6 -60 6 0 11 8 12 18 0 13 2 12 9 -5 5 -13 14 -23 20 -23 5 0 9 -3 9 -7 -3
-20 2 -26 11 -13 6 10 10 11 10 3 0 -7 5 -13 10 -13 6 0 22 -12 37 -26 14 -14
31 -23 39 -20 8 3 14 -1 14 -8 0 -19 33 -26 48 -9 11 11 16 10 34 -7 31 -29
52 -27 36 2 -7 13 -17 26 -23 30 -7 5 -7 8 0 8 6 0 18 -9 28 -20 9 -11 24 -20
32 -20 8 0 15 -5 15 -11 0 -8 5 -7 15 1 13 11 20 11 40 0 13 -7 30 -10 39 -7
10 4 13 1 9 -9 -3 -7 0 -14 6 -14 6 0 11 7 11 15 0 9 6 12 15 9 8 -4 15 -1 15
5 0 6 9 11 21 11 11 0 29 5 40 10 23 13 25 7 3 -14 -8 -9 -11 -16 -5 -16 5 0
12 4 15 9 3 5 16 7 28 3 14 -3 19 -1 14 6 -3 6 -2 13 4 17 5 3 10 -1 10 -9 0
-11 8 -15 25 -14 14 1 25 6 25 11 0 5 -9 7 -19 4 -13 -3 -18 -1 -14 9 2 7 11
10 19 7 9 -3 14 2 14 15 0 12 5 24 12 28 8 5 9 2 5 -9 -4 -10 -1 -17 6 -17 8
0 6 -4 -3 -10 -13 -9 -13 -10 0 -10 12 0 12 -2 1 -9 -9 -6 -10 -11 -2 -15 6
-4 11 -3 11 3 0 5 13 12 29 16 20 4 28 12 26 23 -1 9 0 11 2 4 3 -8 11 -11 19
-8 8 3 14 -1 14 -9 0 -8 8 -15 18 -15 10 0 13 3 6 8 -15 10 -25 42 -14 42 6 0
10 -5 10 -12 0 -6 6 -3 14 8 8 10 18 16 22 11 4 -4 17 -1 28 6 12 7 27 12 34
11 6 -1 18 -2 25 -3 8 -1 8 -4 -3 -12 -11 -8 -6 -9 23 -5 33 4 50 -5 30 -17
-5 -2 -1 -2 7 1 25 7 54 9 65 3 19 -10 35 -9 35 2 1 7 11 -8 22 -32 12 -25 24
-39 26 -32 2 7 -1 18 -7 24 -14 14 -14 27 -1 27 6 0 15 -11 20 -25 11 -29 18
-32 16 -7 -1 19 27 24 57 9 16 -7 17 -6 7 12 -6 12 -9 21 -6 21 9 0 53 -45 60
-60 3 -8 4 -3 2 13 -2 15 1 27 5 27 5 0 9 -5 9 -11 0 -6 7 -9 15 -5 8 3 15 1
15 -5 0 -6 4 -8 9 -4 5 3 12 -3 15 -12 3 -10 4 -1 1 19 -2 26 0 35 9 32 7 -3
11 -19 9 -42 l-4 -37 16 28 c18 32 33 30 16 -1 -15 -28 -14 -32 4 -26 17 7 20
-7 5 -22 -7 -7 -7 -18 0 -35 10 -24 10 -24 7 4 -4 24 -2 27 17 21 17 -6 19 -4
10 7 -6 8 -14 22 -17 31 -5 15 -4 16 14 5 15 -9 19 -19 15 -39 -5 -23 -2 -28
15 -28 16 0 19 -4 14 -22 -5 -20 -3 -19 12 5 10 15 23 27 30 27 7 0 14 -12 14
-27 1 -18 3 -21 6 -10 6 22 23 12 23 -14 0 -19 1 -19 16 -5 30 31 45 14 23
-26 -6 -11 -8 -22 -6 -25 3 -3 13 9 22 26 20 40 33 39 37 -1 l4 -33 11 35 10
35 8 -38 c7 -35 24 -51 26 -24 1 6 4 1 8 -13 5 -18 14 -25 30 -24 19 1 21 -3
16 -24 -6 -23 -5 -24 12 -7 21 21 29 5 13 -24 -14 -26 1 -28 37 -4 26 17 26
17 12 -5 -8 -12 -17 -22 -21 -22 -5 0 -8 -8 -7 -17 0 -11 3 -13 6 -5 9 23 23
12 23 -18 0 -16 3 -30 8 -30 4 0 6 17 4 39 -2 21 1 41 6 45 6 3 9 -10 9 -34
-1 -43 9 -62 22 -41 11 17 21 -31 11 -51 -7 -14 21 -79 36 -81 5 -1 8 -15 7
-30 -1 -26 0 -27 14 -10 14 17 14 17 9 -1 -5 -13 -2 -17 9 -12 8 3 15 1 15 -4
0 -6 -4 -10 -10 -10 -16 0 -6 -54 13 -68 9 -7 15 -18 12 -23 -4 -5 -2 -9 3 -9
5 0 12 -11 14 -25 5 -22 3 -23 -10 -13 -13 11 -14 10 -10 -2 3 -9 17 -15 34
-15 20 -1 30 -6 32 -19 3 -11 0 -16 -7 -12 -6 4 -11 0 -11 -8 0 -9 5 -16 10
-16 6 0 10 -6 10 -13 0 -14 56 -67 71 -67 5 0 9 -9 9 -20 0 -11 7 -20 16 -20
8 0 13 -4 10 -9 -8 -12 21 -34 34 -26 7 4 10 0 8 -11 -2 -13 2 -18 15 -16 13
2 17 -4 18 -25 l1 -28 13 30 14 30 1 -37 c0 -32 2 -36 23 -31 12 3 27 10 34
15 9 7 12 2 10 -21 -1 -17 -5 -31 -9 -31 -5 0 -8 -4 -8 -10 0 -17 30 1 30 19
1 15 1 15 10 -1 6 -10 18 -14 30 -11 18 5 19 3 9 -27 -9 -25 -9 -34 1 -40 6
-4 11 -10 11 -14 -3 -24 1 -36 10 -31 6 4 8 13 5 21 -3 8 -1 14 4 14 6 0 10
-9 10 -21 0 -11 5 -17 10 -14 6 4 8 11 5 16 -4 5 3 9 14 9 22 0 27 -16 11 -40
-7 -11 -10 -11 -10 -2 0 18 -49 -18 -50 -37 0 -11 3 -11 15 -1 8 7 24 10 35 7
13 -3 20 0 20 9 0 20 36 58 44 46 7 -12 -11 -64 -25 -73 -7 -4 -4 -9 5 -12 10
-4 16 -1 16 7 0 23 24 24 37 2 l12 -21 1 23 c0 15 6 22 20 22 25 0 26 -17 3
-23 -17 -4 -16 -5 1 -12 28 -12 70 15 74 48 2 15 8 27 14 27 5 0 7 -7 4 -16
-3 -9 -6 -27 -6 -40 0 -13 -3 -23 -8 -22 -4 2 -19 -8 -32 -21 l-25 -23 25 7
c14 4 27 11 30 14 3 4 17 12 33 18 38 17 36 -2 -5 -39 -22 -19 -27 -28 -15
-28 9 0 19 5 22 10 3 6 17 10 30 10 13 0 26 6 29 13 3 6 4 1 3 -13 -1 -14 -8
-24 -15 -22 -6 1 -12 -5 -12 -13 0 -8 5 -16 10 -16 6 -1 16 -2 23 -3 6 -1 17
5 24 14 6 8 15 11 20 6 4 -5 2 -11 -4 -13 -7 -3 -13 -11 -13 -19 0 -8 -4 -14
-8 -14 -5 0 -14 -12 -21 -27 -11 -24 -11 -25 4 -13 28 23 55 23 55 -1 0 -11
-3 -18 -7 -16 -5 3 -8 -13 -8 -34 -1 -30 3 -38 15 -36 15 2 15 -2 3 -46 -4
-13 -1 -16 11 -11 11 4 16 0 16 -14 0 -11 5 -22 10 -24 6 -2 2 -19 -9 -41
l-19 -37 1254 0 1254 0 0 565 c-1 347 -5 565 -11 565 -5 0 -9 -4 -9 -10 0 -5
-5 -10 -10 -10 -6 0 -9 3 -9 7 1 5 1 15 0 23 -1 13 -2 13 -11 0 -5 -8 -10 -23
-10 -33 0 -14 6 -16 28 -11 21 4 24 3 12 -5 -10 -7 -11 -11 -2 -11 6 0 12 -11
12 -25 0 -14 -3 -25 -6 -25 -12 0 -35 31 -29 40 3 5 -3 10 -14 10 -12 0 -21
-4 -21 -10 0 -16 -17 -12 -24 6 -4 10 2 24 15 35 12 11 18 19 13 19 -5 0 -11
12 -12 27 -3 43 -12 40 -12 -5 0 -25 -5 -42 -11 -42 -8 0 -10 -15 -7 -44 3
-24 1 -51 -4 -60 -5 -9 -8 -22 -5 -29 2 -7 11 2 21 18 9 17 14 21 11 10 -17
-47 -17 -58 -4 -66 9 -6 10 -9 2 -9 -6 0 -15 5 -18 10 -4 6 -11 8 -16 5 -5 -4
-9 8 -9 24 0 36 -14 40 -31 9 -9 -17 -9 -20 3 -16 8 4 18 -4 25 -18 9 -19 8
-24 -2 -24 -7 0 -16 -6 -19 -12 -3 -7 -5 -1 -3 13 3 17 -3 30 -15 38 -10 6
-17 14 -17 19 1 4 1 14 0 22 -1 13 -3 13 -10 0 -6 -8 -7 -18 -5 -22 3 -4 -2
-8 -10 -8 -10 0 -13 -6 -10 -15 4 -10 0 -15 -13 -15 -21 0 -66 29 -45 30 7 0
12 12 11 28 0 15 -3 21 -6 15 -2 -7 -12 -13 -21 -13 -15 0 -15 -2 -2 -10 14
-9 7 -15 -14 -11 -5 1 -6 -7 -3 -19 6 -22 -3 -26 -21 -8 -15 15 -16 32 -2 23
6 -3 10 -1 10 4 0 6 -8 11 -17 11 -16 0 -16 2 -3 11 12 9 12 10 -3 5 -22 -7
-60 11 -52 25 4 5 -1 9 -11 9 -13 0 -14 -3 -4 -15 8 -10 9 -15 2 -15 -6 0 -17
10 -23 23 -15 27 -39 46 -59 47 -8 0 -26 9 -40 20 -31 24 -41 25 -33 2 3 -9 3
-14 -1 -10 -4 3 -8 13 -10 21 -3 21 -26 47 -42 47 -8 0 -14 4 -14 10 0 5 -6 7
-12 5 -15 -5 -68 38 -68 55 0 5 -4 10 -9 10 -14 0 -152 191 -202 280 -66 117
-85 149 -92 156 -13 13 -67 133 -67 149 0 8 -4 15 -10 15 -5 0 -10 11 -10 25
0 14 -4 25 -10 25 -5 0 -10 11 -10 24 0 14 -4 27 -9 31 -5 3 -17 29 -26 58 -9
28 -19 58 -22 66 -4 10 -1 12 11 8 9 -4 16 -2 16 3 0 6 -4 10 -10 10 -5 0 -10
7 -10 15 0 8 -3 15 -7 15 -17 0 -30 50 -28 103 2 46 0 55 -12 50 -12 -5 -14
-1 -9 15 3 12 8 31 11 41 3 11 1 22 -5 26 -5 3 -10 17 -10 30 0 13 -5 35 -11
48 -9 19 -8 30 5 49 12 18 14 32 7 56 -6 19 -6 34 0 37 5 4 9 15 9 25 0 14 5
18 16 13 14 -5 15 -3 4 18 -9 15 -9 24 -2 27 5 1 8 12 5 23 -4 15 -2 18 12 12
13 -4 16 -3 11 5 -4 7 -2 12 4 12 12 0 10 17 -6 67 -5 16 -4 16 11 -2 l17 -20
-2 20 c-4 40 0 56 12 49 8 -5 9 -2 5 10 -4 10 -2 27 4 38 6 12 7 18 1 14 -5
-3 -12 3 -15 14 -3 11 -1 20 4 20 5 0 9 -4 9 -10 0 -5 5 -10 11 -10 6 0 9 9 6
20 -4 15 1 22 19 26 21 5 23 9 12 22 -11 13 -10 14 9 4 30 -16 37 -15 19 4 -9
8 -16 20 -16 26 0 6 3 8 7 5 9 -10 32 25 33 48 0 12 -5 26 -12 33 -9 9 -9 12
0 12 7 0 12 7 12 16 0 14 3 14 16 3 13 -10 17 -10 24 1 5 8 5 19 0 25 -5 6 -5
17 1 25 8 13 11 13 23 -2 7 -10 16 -18 20 -18 9 0 3 24 -9 33 -7 4 -6 10 1 15
15 10 25 42 12 39 -6 -1 -12 4 -14 11 -1 7 0 8 3 2 3 -7 13 -5 30 5 23 15 24
15 23 -2 -1 -10 -2 -31 -1 -48 1 -27 3 -28 15 -12 7 9 18 17 25 17 6 0 11 5
11 10 0 6 7 10 16 10 12 0 15 7 12 30 -5 33 7 41 15 10 3 -13 10 -18 21 -14
12 4 16 0 16 -15 0 -14 -9 -25 -25 -31 -24 -9 -37 -50 -15 -50 6 0 10 9 10 20
0 11 7 20 15 20 9 0 15 -9 15 -25 0 -14 5 -25 11 -25 7 0 9 10 7 25 -4 20 -1
25 16 24 11 0 15 -3 9 -6 -20 -8 -15 -23 7 -23 18 0 20 5 17 33 -2 17 -2 24 0
15 4 -15 8 -16 26 -6 21 11 21 11 3 -17 -14 -22 -16 -32 -7 -51 6 -13 16 -24
22 -24 8 0 6 7 -4 18 -10 10 -17 22 -17 25 0 9 53 -3 60 -13 3 -4 15 -12 28
-19 12 -7 20 -16 17 -22 -4 -5 -1 -9 5 -9 7 0 10 6 7 13 -2 6 -1 21 4 32 7 19
8 19 8 -2 1 -13 6 -23 11 -23 6 0 10 -5 10 -11 0 -5 -4 -8 -9 -5 -4 3 -6 -6
-3 -20 3 -16 -1 -30 -9 -35 -11 -7 -10 -9 4 -9 11 0 17 8 17 24 0 14 5 28 11
32 8 5 10 -3 7 -25 -3 -18 0 -31 6 -32 6 -1 0 -5 -14 -9 -24 -9 -24 -9 5 -8
17 1 37 0 45 0 16 -2 40 -54 40 -86 0 -14 3 -14 14 -4 7 7 13 17 12 23 -1 5 4
10 9 10 6 0 10 -10 10 -22 -1 -13 5 -23 11 -23 7 0 21 -3 31 -6 16 -6 16 -5
-2 9 -19 16 -18 16 15 11 19 -4 40 -11 45 -16 6 -6 3 -7 -10 -3 -17 6 -18 5
-5 -7 9 -7 14 -21 12 -30 -2 -11 3 -18 12 -18 9 0 16 5 16 10 0 25 15 7 17
-20 1 -18 -2 -28 -7 -25 -6 4 -10 0 -10 -8 0 -10 8 -13 24 -10 16 3 25 -1 30
-12 8 -21 -12 -48 -31 -41 -8 4 -13 -2 -12 -17 0 -12 3 -16 6 -9 9 22 32 14
25 -10 -5 -20 -3 -21 10 -11 8 7 19 9 24 5 4 -4 2 1 -5 10 -16 21 -8 48 13 48
10 0 13 -6 10 -15 -4 -8 -1 -15 5 -15 20 0 11 -30 -11 -40 -19 -7 -19 -9 -5
-9 12 -1 16 -5 11 -13 -5 -9 -2 -9 9 1 9 7 17 20 17 27 0 8 5 14 10 14 11 0 8
-72 -5 -105 -7 -16 -6 -18 6 -8 16 15 33 17 24 3 -3 -6 1 -17 9 -26 9 -8 16
-22 16 -30 0 -8 4 -14 8 -14 13 0 11 33 -2 49 -8 11 -8 15 2 18 6 3 12 14 12
24 0 11 4 18 9 14 5 -3 12 3 14 12 4 14 5 13 6 -4 0 -12 -5 -24 -11 -26 -10
-4 -10 -6 0 -6 10 -1 10 -5 0 -21 -11 -17 -11 -22 0 -29 9 -5 11 -21 7 -52 -5
-31 -4 -40 4 -29 5 8 13 12 16 8 4 -3 -3 -15 -15 -26 -22 -20 -19 -49 2 -36 7
5 9 1 5 -9 -4 -11 -1 -17 8 -17 8 0 14 3 14 8 -4 26 3 62 11 57 7 -4 10 457
10 1374 0 932 -3 1381 -10 1381 -10 0 -8 19 6 70 8 25 7 25 -12 6 -10 -11 -17
-30 -16 -43 3 -18 -1 -23 -20 -24 -17 -1 -18 -3 -5 -6 9 -2 17 -8 17 -13 0
-12 -59 -18 -63 -6 -7 22 -37 -17 -37 -48 -1 -25 -3 -28 -10 -14 -6 10 -7 26
-1 41 9 22 7 24 -24 24 -20 0 -36 -6 -40 -14 -3 -11 1 -13 16 -8 15 5 20 3 17
-6 -2 -7 -18 -14 -34 -15 -49 -2 -54 -4 -54 -13 0 -5 20 -12 44 -15 24 -4 50
-14 56 -21 7 -8 22 -15 34 -16 19 -1 18 -2 -4 -9 -14 -4 -36 -8 -50 -8 -23 1
-23 1 -2 5 30 6 28 23 -2 23 -13 0 -26 6 -29 13 -2 6 -8 9 -12 5 -4 -4 -3 -14
4 -21 9 -11 8 -17 -4 -27 -8 -6 -20 -10 -27 -7 -8 4 -7 6 5 6 19 1 22 18 7 41
-8 13 -10 12 -10 -3 0 -25 -26 -32 -53 -15 -13 9 -42 13 -74 11 -29 -1 -53 2
-53 7 0 4 -6 10 -12 13 -7 2 -3 2 10 0 13 -2 22 2 22 10 0 15 -56 22 -65 7 -3
-5 -16 -9 -28 -9 -17 1 -18 2 -4 6 27 7 20 21 -8 15 -20 -3 -27 1 -35 22 -6
17 -14 25 -22 20 -9 -6 -9 -9 0 -12 22 -7 2 -22 -29 -22 -21 0 -28 -4 -24 -12
4 -7 -1 -4 -9 6 -9 11 -16 24 -16 29 0 4 -5 5 -11 1 -7 -4 -9 -21 -6 -40 3
-19 2 -34 -4 -34 -19 0 -9 70 15 105 53 77 55 312 5 525 -6 25 -15 54 -20 65
-4 11 -18 54 -30 95 -12 41 -35 106 -51 145 -16 38 -42 116 -59 172 -16 56
-46 130 -66 165 -40 67 -230 264 -298 309 -102 67 -184 119 -230 145 -27 16
-75 47 -105 70 -30 22 -75 54 -100 69 -78 49 -419 143 -656 180 -147 23 -165
23 -790 23 -351 0 -647 -2 -657 -5z m1307 -11 c2 -4 -13 -6 -35 -4 -21 2 -39
6 -39 8 0 7 69 4 74 -4z m49 -9 c-7 -2 -19 -2 -25 0 -7 3 -2 5 12 5 14 0 19
-2 13 -5z m65 -10 c-10 -2 -26 -2 -35 0 -10 3 -2 5 17 5 19 0 27 -2 18 -5z
m75 -10 c-7 -2 -21 -2 -30 0 -10 3 -4 5 12 5 17 0 24 -2 18 -5z m100 -20 c-7
-2 -19 -2 -25 0 -7 3 -2 5 12 5 14 0 19 -2 13 -5z m44 -9 c-3 -3 -12 -4 -19
-1 -8 3 -5 6 6 6 11 1 17 -2 13 -5z m46 -11 c-7 -2 -19 -2 -25 0 -7 3 -2 5 12
5 14 0 19 -2 13 -5z m72 -13 c13 -5 14 -9 5 -9 -8 0 -24 4 -35 9 -13 5 -14 9
-5 9 8 0 24 -4 35 -9z m52 -16 c-3 -3 -12 -4 -19 -1 -8 3 -5 6 6 6 11 1 17 -2
13 -5z m54 -22 c-7 -2 -18 1 -23 6 -8 8 -4 9 13 5 13 -4 18 -8 10 -11z m-2081
-63 c0 -6 -4 -7 -10 -4 -5 3 -10 11 -10 16 0 6 5 7 10 4 6 -3 10 -11 10 -16z
m2257 15 c-3 -3 -12 -4 -19 -1 -8 3 -5 6 6 6 11 1 17 -2 13 -5z m-2732 -114
c-3 -5 -14 -10 -23 -9 -14 0 -13 2 3 9 27 11 27 11 20 0z m-50 -10 c3 -5 1
-10 -4 -10 -6 0 -11 5 -11 10 0 6 2 10 4 10 3 0 8 -4 11 -10z m-55 -25 c0 -8
-4 -15 -10 -15 -5 0 -7 7 -4 15 4 8 8 15 10 15 2 0 4 -7 4 -15z m30 5 c0 -5
-4 -10 -10 -10 -5 0 -10 5 -10 10 0 6 5 10 10 10 6 0 10 -4 10 -10z m-1018
-287 c-9 -4 -10 -8 -2 -18 7 -8 7 -16 2 -19 -12 -7 -25 22 -16 35 3 5 11 9 17
8 8 0 8 -2 -1 -6z m32 -19 c3 -8 2 -12 -4 -9 -6 3 -10 10 -10 16 0 14 7 11 14
-7z m83 -46 c-3 -8 -6 -5 -6 6 -1 11 2 17 5 13 3 -3 4 -12 1 -19z m-2 -38 c7
0 16 6 18 13 4 7 6 6 6 -5 1 -9 4 -18 9 -21 4 -2 1 -2 -6 0 -8 1 -22 3 -33 3
-14 0 -19 7 -18 28 2 23 2 24 6 5 2 -13 10 -23 18 -23z m-42 17 c4 3 7 1 7 -5
0 -14 -36 -16 -44 -3 -9 13 6 22 19 11 7 -5 15 -7 18 -3z m264 -109 c-3 -8 -6
-5 -6 6 -1 11 2 17 5 13 3 -3 4 -12 1 -19z m70 0 c-3 -8 -6 -5 -6 6 -1 11 2
17 5 13 3 -3 4 -12 1 -19z m-16 -159 c-5 -13 -10 -19 -10 -12 -1 15 10 45 15
40 3 -2 0 -15 -5 -28z m9 -179 c0 -5 -20 -10 -45 -10 -25 0 -45 5 -45 10 0 6
20 10 45 10 25 0 45 -4 45 -10z m487 -14 c3 -3 -4 -6 -16 -6 -12 0 -19 -4 -16
-10 3 -5 1 -10 -4 -10 -6 0 -11 6 -11 14 0 9 -7 12 -20 9 -11 -3 -20 0 -20 6
0 11 75 9 87 -3z m-465 -25 c4 -3 -17 -4 -47 -3 -30 2 -55 8 -55 14 0 10 89 1
102 -11z m-215 -23 c-3 -8 -6 -5 -6 6 -1 11 2 17 5 13 3 -3 4 -12 1 -19z m423
12 c-8 -5 -24 -10 -35 -10 -17 0 -17 2 -5 10 8 5 24 10 35 10 17 0 17 -2 5
-10z m-273 -25 c0 -8 -4 -15 -9 -15 -4 0 -8 7 -8 15 0 8 4 15 8 15 5 0 9 -7 9
-15z m98 -5 c3 -5 1 -10 -4 -10 -6 0 -11 5 -11 10 0 6 2 10 4 10 3 0 8 -4 11
-10z m-193 -32 c-7 -7 -12 -8 -12 -2 0 14 12 26 19 19 2 -3 -1 -11 -7 -17z
m284 -60 c-6 -4 -22 -7 -36 -7 l-25 0 23 9 c12 5 25 17 29 27 6 15 7 15 13 -3
4 -10 2 -22 -4 -26z m-276 12 c0 -5 -4 -10 -9 -10 -6 0 -13 5 -16 10 -3 6 1
10 9 10 9 0 16 -4 16 -10z m10 -35 c0 -8 -2 -15 -4 -15 -2 0 -6 7 -10 15 -3 8
-1 15 4 15 6 0 10 -7 10 -15z m-90 -28 c10 -4 8 -6 -6 -6 -12 -1 -25 6 -28 15
-5 13 -3 14 6 7 7 -6 20 -13 28 -16z m-77 -17 c-3 -12 -8 -19 -11 -16 -5 6 5
36 12 36 2 0 2 -9 -1 -20z m204 -2 c7 19 23 4 23 -21 0 -13 -3 -17 -8 -11 -4
7 -16 13 -26 15 -11 2 -22 11 -24 19 -5 13 -3 13 13 0 14 -11 19 -12 22 -2z
m-260 -30 c-3 -7 -5 -2 -5 12 0 14 2 19 5 13 2 -7 2 -19 0 -25z m1048 1 c-4
-5 1 -9 9 -9 9 0 16 -4 16 -10 0 -5 -3 -9 -7 -9 -22 4 -33 -3 -33 -18 -1 -16
-2 -16 -15 2 -13 17 -13 20 0 28 8 4 15 15 15 23 0 8 5 12 10 9 6 -4 8 -11 5
-16z m-950 -29 c-4 -17 -9 -29 -12 -26 -3 2 -2 19 2 36 4 17 9 29 12 26 3 -2
2 -19 -2 -36z m-58 -2 c-3 -7 -5 -2 -5 12 0 14 2 19 5 13 2 -7 2 -19 0 -25z
m10 -65 c-3 -10 -5 -2 -5 17 0 19 2 27 5 18 2 -10 2 -26 0 -35z m43 -1 c0 -15
-2 -15 -10 -2 -13 20 -13 33 0 25 6 -3 10 -14 10 -23z m-530 -22 c0 -5 -2 -10
-4 -10 -3 0 -8 5 -11 10 -3 6 -1 10 4 10 6 0 11 -4 11 -10z m20 -35 c7 -9 8
-15 2 -15 -5 0 -12 7 -16 15 -3 8 -4 15 -2 15 2 0 9 -7 16 -15z m1375 5 c3 -5
1 -10 -4 -10 -6 0 -11 5 -11 10 0 6 2 10 4 10 3 0 8 -4 11 -10z m-805 -20 c0
-5 -12 -10 -27 -9 l-28 1 25 8 c14 4 26 8 28 9 1 1 2 -3 2 -9z m-70 -42 c0 7
5 10 11 6 8 -5 8 -9 -1 -14 -15 -9 -41 -7 -40 3 0 4 0 17 1 30 1 20 2 19 14
-8 8 -16 14 -24 15 -17z m835 12 c3 -5 1 -10 -4 -10 -6 0 -11 5 -11 10 0 6 2
10 4 10 3 0 8 -4 11 -10z m-1238 -35 c5 -4 2 -5 -4 -1 -7 4 -13 3 -13 -3 0 -5
6 -11 13 -14 6 -2 9 -7 6 -11 -3 -3 -16 5 -29 19 -24 25 -24 25 -2 22 12 -2
25 -7 29 -12z m1158 5 c-3 -5 -11 -10 -16 -10 -6 0 -7 5 -4 10 3 6 11 10 16
10 6 0 7 -4 4 -10z m-788 -52 c-3 -8 -6 -5 -6 6 -1 11 2 17 5 13 3 -3 4 -12 1
-19z m-337 8 c0 -3 -4 -8 -10 -11 -5 -3 -10 -1 -10 4 0 6 5 11 10 11 6 0 10
-2 10 -4z m922 -9 c-12 -7 -20 -16 -17 -19 4 -3 -7 -9 -24 -13 -25 -5 -31 -12
-32 -33 l-2 -27 -4 25 c-3 14 -10 28 -15 31 -6 4 4 10 21 14 18 4 34 12 37 19
2 6 17 13 32 14 27 1 27 1 4 -11z m238 -2 c16 -19 0 -19 -26 0 -16 12 -16 14
-3 15 9 0 22 -7 29 -15z m-1102 -45 c7 0 12 -4 12 -10 0 -5 -2 -10 -5 -10 -13
0 -55 33 -55 43 0 5 8 3 18 -6 10 -10 24 -17 30 -17z m727 -10 c3 -5 1 -10 -4
-10 -6 0 -11 5 -11 10 0 6 2 10 4 10 3 0 8 -4 11 -10z m425 6 c0 -2 -7 -7 -16
-10 -8 -3 -12 -2 -9 4 6 10 25 14 25 6z m-1113 -32 c-3 -3 -12 -4 -19 -1 -8 3
-5 6 6 6 11 1 17 -2 13 -5z m1173 -4 c0 -5 -5 -10 -11 -10 -5 0 -7 5 -4 10 3
6 8 10 11 10 2 0 4 -4 4 -10z m-1120 -32 c0 -5 -9 -3 -20 4 -11 7 -20 16 -20
20 0 5 9 3 20 -4 11 -7 20 -16 20 -20z m30 -13 c11 -13 10 -14 -4 -9 -9 3 -16
10 -16 15 0 13 6 11 20 -6z m70 -35 c8 -5 11 -10 5 -10 -5 0 -17 5 -25 10 -8
5 -10 10 -5 10 6 0 17 -5 25 -10z m56 -28 c-4 -3 -14 2 -24 12 -16 18 -16 18
6 6 13 -6 21 -14 18 -18z m5360 -115 c4 -4 -5 -7 -20 -7 -15 0 -25 4 -22 9 7
10 31 9 42 -2z m54 -22 c-14 -17 -60 -20 -60 -5 0 6 7 10 16 10 9 0 12 5 8 13
-6 9 -4 9 8 -1 13 -10 17 -10 23 5 5 13 9 14 12 5 3 -7 -1 -19 -7 -27z m-541
-9 c-3 -3 -16 -2 -29 1 -22 6 -22 7 -4 14 18 6 43 -5 33 -15z m-3969 -11 c0
-8 -7 -15 -16 -15 -14 0 -14 3 -4 15 7 8 14 15 16 15 2 0 4 -7 4 -15z m4440 5
c0 -5 -4 -10 -10 -10 -5 0 -10 5 -10 10 0 6 5 10 10 10 6 0 10 -4 10 -10z
m-4390 -15 c0 -8 -4 -15 -10 -15 -5 0 -10 7 -10 15 0 8 5 15 10 15 6 0 10 -7
10 -15z m-113 -15 c-3 -13 0 -20 10 -20 8 0 12 4 9 9 -4 5 3 7 14 4 11 -3 26
0 34 6 11 9 15 9 18 -1 3 -8 21 -13 51 -12 26 0 47 -2 47 -6 0 -4 9 -10 20
-13 11 -3 20 0 20 6 0 6 3 7 6 4 4 -4 1 -14 -7 -24 -12 -15 -12 -16 4 -10 10
4 17 2 17 -6 0 -7 -16 -19 -35 -26 -38 -13 -133 -67 -102 -57 54 18 70 19 65
5 -3 -8 -14 -12 -24 -11 -10 2 -16 1 -12 -3 4 -4 18 -8 30 -9 16 -1 24 -8 26
-24 2 -13 8 -20 14 -16 7 5 9 1 5 -9 -4 -10 -1 -17 6 -18 7 0 3 -4 -8 -9 -24
-11 171 -5 199 6 12 5 17 4 13 -3 -3 -5 0 -10 8 -10 8 0 15 5 15 10 0 5 11 7
25 5 20 -4 23 -3 14 8 -13 16 -1 18 21 4 12 -7 16 -3 21 18 l7 27 1 -27 c1
-37 12 -35 48 7 33 38 43 43 43 21 0 -8 5 -18 12 -22 7 -5 9 -1 6 13 -5 17 0
20 40 22 24 0 48 4 52 6 5 3 11 1 15 -4 3 -6 12 -8 20 -4 10 3 15 -2 15 -16 0
-12 4 -21 9 -21 15 0 22 -35 13 -60 l-9 -24 -7 27 c-3 15 -13 27 -21 27 -8 0
-15 5 -15 12 0 6 -3 8 -7 5 -3 -4 1 -15 9 -24 17 -19 30 -83 17 -83 -4 0 -14
9 -22 20 -13 18 -15 19 -21 5 -9 -24 -7 -35 5 -35 5 0 7 6 3 13 -5 9 -4 9 6 0
13 -12 5 -37 -10 -28 -12 8 -33 -23 -26 -40 3 -9 -1 -18 -9 -21 -8 -4 -15 -10
-15 -16 0 -5 5 -6 10 -3 6 3 10 1 10 -4 0 -6 -7 -11 -15 -11 -8 0 -15 4 -15 9
0 5 -9 7 -20 4 -24 -6 -26 -30 -3 -35 16 -3 16 -4 0 -20 -9 -9 -17 -25 -17
-35 0 -10 -3 -29 -7 -42 -6 -23 -7 -24 -15 -5 -5 13 -6 7 -3 -18 5 -30 2 -38
-14 -43 -18 -6 -39 -70 -27 -83 3 -3 6 2 6 11 0 10 4 17 9 17 5 0 7 -10 4 -21
-4 -13 0 -26 8 -33 13 -9 13 -15 1 -36 l-14 -25 7 28 c5 25 3 28 -17 25 -15
-2 -22 -9 -20 -20 2 -10 -2 -18 -7 -18 -6 0 -8 -12 -5 -29 4 -21 0 -37 -15
-57 -31 -43 -59 -126 -53 -162 2 -18 -1 -39 -9 -48 -10 -13 -10 -17 2 -25 10
-6 10 -9 2 -9 -7 0 -13 -12 -13 -26 0 -26 -1 -26 -25 -10 -21 14 -25 14 -25 2
0 -8 6 -17 13 -19 9 -4 9 -8 0 -14 -6 -4 -15 -21 -18 -36 -4 -15 -14 -27 -22
-27 -10 0 -12 -6 -8 -21 5 -15 4 -19 -4 -15 -17 11 -13 44 7 48 14 3 13 5 -5
10 -20 5 -24 1 -33 -34 -6 -21 -14 -46 -17 -55 -5 -12 -3 -14 8 -8 12 7 12 6
1 -7 -10 -13 -10 -17 0 -20 8 -3 6 -7 -5 -11 -13 -5 -17 0 -18 21 -1 20 -4 16
-11 -17 -6 -29 -13 -40 -18 -31 -6 9 -13 5 -26 -16 -10 -16 -24 -34 -32 -41
-8 -7 -15 -22 -16 -35 -1 -16 -7 -22 -19 -20 -19 3 -23 -13 -6 -23 6 -5 4 -11
-7 -19 -12 -9 -14 -15 -6 -20 15 -9 16 -46 2 -46 -5 0 -10 7 -10 15 0 8 -5 15
-11 15 -6 0 -9 -6 -6 -14 3 -8 -5 -26 -18 -41 -24 -24 -26 -25 -54 -11 -16 9
-31 21 -33 27 -3 8 -10 6 -21 -6 -17 -16 -19 -16 -36 4 -10 12 -24 21 -30 21
-6 0 -14 6 -17 14 -3 9 -12 12 -21 9 -13 -5 -15 -2 -11 15 5 17 0 24 -28 34
-23 8 -34 18 -34 31 0 14 -5 18 -20 14 -15 -4 -20 0 -21 16 -1 15 -4 11 -11
-13 -11 -34 -11 -34 -17 -10 -5 17 -16 26 -39 31 -36 7 -42 4 -43 -25 0 -20
-1 -20 -8 -1 -7 18 -9 17 -18 -10 l-10 -30 -8 38 c-6 33 -27 49 -38 30 -2 -5
-2 -2 -1 5 4 14 -15 16 -49 3 -29 -11 -42 -4 -26 15 7 9 2 14 -21 19 -16 4
-28 10 -26 14 6 9 -30 41 -47 41 -8 0 -8 3 2 9 11 7 10 11 -5 20 -17 9 -17 10
-2 11 12 0 17 7 15 23 -2 18 2 22 24 19 17 -2 29 3 33 13 3 9 10 13 16 10 5
-3 10 -1 10 4 0 6 7 11 15 11 8 0 15 5 15 10 0 6 5 10 11 10 6 0 38 20 70 45
33 25 63 45 68 45 17 0 43 64 46 114 3 38 -3 61 -23 100 -15 28 -30 53 -34 54
-5 2 -8 8 -8 14 0 5 -7 25 -16 44 -10 20 -15 51 -13 78 3 35 1 42 -9 34 -9 -8
-11 -3 -8 23 3 27 8 33 22 31 12 -2 15 0 7 5 -18 13 -35 63 -20 60 7 -1 11 6
9 16 -2 12 4 21 17 24 12 3 18 9 15 14 -3 5 -2 25 2 45 5 25 9 32 15 22 9 -13
10 -11 13 15 0 6 18 13 39 15 28 2 37 0 37 -12 0 -9 3 -15 8 -14 13 4 52 -26
54 -42 1 -8 4 14 7 50 3 36 3 69 -1 75 -13 15 -9 43 8 59 8 9 13 20 9 26 -3 6
1 7 9 4 9 -3 16 -1 16 4 0 6 9 14 20 17 11 3 20 13 20 21 0 8 5 14 12 14 6 0
19 7 29 16 9 8 26 16 37 17 12 0 18 6 15 14 -3 7 1 13 9 13 10 0 13 10 10 34
-3 27 -7 33 -23 29 -10 -3 -19 -12 -19 -19 0 -12 -4 -12 -20 -2 -23 15 -27 62
-8 103 13 30 22 33 15 5z m4098 6 c-11 -8 -25 -12 -32 -9 -9 4 -11 -1 -7 -13
5 -15 4 -16 -4 -4 -6 8 -9 17 -6 21 2 4 -6 10 -18 12 -13 2 1 5 31 6 49 1 53
0 36 -13z m-107 -21 c-3 -3 -9 2 -12 12 -6 14 -5 15 5 6 7 -7 10 -15 7 -18z
m135 0 c11 14 14 14 29 -4 15 -18 15 -19 -14 -25 -19 -4 -27 -10 -22 -17 4 -8
3 -9 -4 -5 -7 4 -11 22 -11 39 1 18 3 24 6 14 4 -17 6 -17 16 -2z m-226 -17
c-3 -8 -6 -5 -6 6 -1 11 2 17 5 13 3 -3 4 -12 1 -19z m-4120 6 c-3 -3 -12 -4
-19 -1 -8 3 -5 6 6 6 11 1 17 -2 13 -5z m4478 -4 c3 -5 -1 -10 -9 -10 -9 0
-16 5 -16 10 0 6 4 10 9 10 6 0 13 -4 16 -10z m-175 -15 c-7 -8 -17 -15 -22
-15 -6 0 -5 7 2 15 7 8 17 15 22 15 6 0 5 -7 -2 -15z m-4170 -90 c-7 -22 -25
-54 -40 -72 -16 -17 -33 -40 -38 -50 -6 -10 -14 -14 -19 -9 -4 5 -2 11 5 13 6
3 12 11 12 19 0 8 4 14 9 14 16 0 58 83 67 130 6 34 9 39 12 20 2 -13 -2 -42
-8 -65z m4315 75 c-3 -5 -10 -10 -16 -10 -5 0 -9 5 -9 10 0 6 7 10 16 10 8 0
12 -4 9 -10z m172 -12 c-3 -8 -6 -5 -6 6 -1 11 2 17 5 13 3 -3 4 -12 1 -19z
m-490 -20 c-3 -7 -5 -2 -5 12 0 14 2 19 5 13 2 -7 2 -19 0 -25z m398 22 c3 -5
1 -10 -4 -10 -6 0 -11 5 -11 10 0 6 2 10 4 10 3 0 8 -4 11 -10z m-198 -26 c-3
-3 -12 -4 -19 -1 -8 3 -5 6 6 6 11 1 17 -2 13 -5z m-3342 -14 c-3 -5 -10 -10
-16 -10 -5 0 -9 5 -9 10 0 6 7 10 16 10 8 0 12 -4 9 -10z m32 -22 c-3 -7 -5
-2 -5 12 0 14 2 19 5 13 2 -7 2 -19 0 -25z m34 20 c1 -7 1 -17 0 -22 -1 -4 3
-14 9 -21 9 -11 7 -12 -9 -8 -15 4 -21 13 -21 34 0 28 19 42 21 17z m-631 -12
c0 -8 -4 -18 -10 -21 -5 -3 -10 3 -10 14 0 12 5 21 10 21 6 0 10 -6 10 -14z
m3720 -38 c0 -51 -5 -47 -13 10 -3 24 -1 40 4 36 5 -3 9 -24 9 -46z m-3350 11
c0 -4 -7 -6 -15 -3 -8 4 -15 10 -15 15 0 4 7 6 15 3 8 -4 15 -10 15 -15z m150
17 c0 -2 -7 -6 -15 -10 -8 -3 -15 -1 -15 4 0 6 7 10 15 10 8 0 15 -2 15 -4z
m60 -7 c0 -4 -7 -9 -15 -13 -9 -3 -15 0 -15 8 0 7 7 13 15 13 8 0 15 -4 15 -8z
m60 -59 c0 -5 -4 -10 -10 -10 -5 0 -10 5 -10 10 0 6 5 10 10 10 6 0 10 -4 10
-10z m3087 -87 c-3 -10 -5 -2 -5 17 0 19 2 27 5 18 2 -10 2 -26 0 -35z m3 -33
c0 -5 -5 -10 -11 -10 -5 0 -7 5 -4 10 3 6 8 10 11 10 2 0 4 -4 4 -10z m-4235
-90 c-3 -5 -10 -10 -16 -10 -5 0 -9 5 -9 10 0 6 7 10 16 10 8 0 12 -4 9 -10z
m-55 -16 c0 -9 -5 -14 -12 -12 -18 6 -21 28 -4 28 9 0 16 -7 16 -16z m-280
-94 c0 -5 -4 -10 -10 -10 -5 0 -10 5 -10 10 0 6 5 10 10 10 6 0 10 -4 10 -10z
m220 -56 c0 -2 -7 -4 -15 -4 -8 0 -15 4 -15 10 0 5 7 7 15 4 8 -4 15 -8 15
-10z m-334 -66 c4 -7 4 -10 -1 -6 -4 4 -14 3 -22 -3 -8 -8 -13 -8 -13 -1 0 6
6 13 13 15 6 3 13 6 14 6 1 1 5 -5 9 -11z m1345 -15 c-8 -15 -10 -15 -11 -2 0
17 10 32 18 25 2 -3 -1 -13 -7 -23z m-1374 -29 c-3 -3 -12 -4 -19 -1 -8 3 -5
6 6 6 11 1 17 -2 13 -5z m43 -658 c0 -2 -9 -6 -20 -9 -11 -3 -18 -1 -14 4 5 9
34 13 34 5z m1080 -47 c0 -16 -23 -34 -40 -33 -29 3 -31 4 -18 18 7 7 19 11
25 9 7 -3 13 2 13 12 0 9 5 13 10 10 6 -3 10 -11 10 -16z m-73 -64 c0 -8 -4
-15 -9 -15 -4 0 -8 7 -8 15 0 8 4 15 8 15 5 0 9 -7 9 -15z m70 -17 c-3 -8 -6
-5 -6 6 -1 11 2 17 5 13 3 -3 4 -12 1 -19z m-614 -16 c-3 -12 -9 -22 -14 -22
-12 0 -11 7 3 30 15 24 19 21 11 -8z m24 6 c-3 -8 -6 -5 -6 6 -1 11 2 17 5 13
3 -3 4 -12 1 -19z m573 -38 c0 -5 -8 -10 -17 -10 -15 0 -16 2 -3 10 19 12 20
12 20 0z m-705 -80 c3 -5 -1 -10 -10 -10 -9 0 -13 5 -10 10 3 6 8 10 10 10 2
0 7 -4 10 -10z m555 -20 c0 -5 -2 -10 -4 -10 -3 0 -8 5 -11 10 -3 6 -1 10 4
10 6 0 11 -4 11 -10z m851 -77 c13 -16 12 -17 -3 -4 -17 13 -22 21 -14 21 2 0
10 -8 17 -17z m-204 -25 c-3 -8 -6 -5 -6 6 -1 11 2 17 5 13 3 -3 4 -12 1 -19z
m2820 -113 c0 -6 -6 -12 -14 -12 -7 0 -13 6 -13 12 0 6 6 12 13 12 8 0 14 -6
14 -12z m68 5 c3 -5 1 -10 -4 -10 -6 0 -11 5 -11 10 0 6 2 10 4 10 3 0 8 -4
11 -10z m17 -43 c-12 -7 -19 -16 -16 -20 4 -4 2 -7 -4 -7 -7 0 -12 4 -12 8 0
13 23 32 40 32 10 -1 7 -5 -8 -13z m-2964 -22 c-3 -3 -9 2 -12 12 -6 14 -5 15
5 6 7 -7 10 -15 7 -18z m2842 -16 c0 -5 -4 -9 -10 -9 -5 0 -10 7 -10 16 0 8 5
12 10 9 6 -3 10 -10 10 -16z m340 -23 c0 -3 -4 -8 -10 -11 -5 -3 -10 -1 -10 4
0 6 5 11 10 11 6 0 10 -2 10 -4z m120 -42 c0 -8 -4 -12 -10 -9 -5 3 -10 10
-10 16 0 5 5 9 10 9 6 0 10 -7 10 -16z m-4150 -7 c0 -7 -7 -22 -15 -33 -12
-16 -14 -17 -15 -2 0 23 11 48 21 48 5 0 9 -6 9 -13z m4220 -47 c0 -5 -4 -10
-10 -10 -5 0 -10 5 -10 10 0 6 5 10 10 10 6 0 10 -4 10 -10z m-606 -26 c5 -14
4 -15 -9 -4 -17 14 -19 20 -6 20 5 0 12 -7 15 -16z m643 -16 c-3 -8 -6 -5 -6
6 -1 11 2 17 5 13 3 -3 4 -12 1 -19z m-57 2 c0 -5 -7 -7 -15 -4 -8 4 -15 8
-15 10 0 2 7 4 15 4 8 0 15 -4 15 -10z m40 -36 c0 -14 -4 -23 -9 -20 -5 3 -7
15 -4 26 7 28 13 25 13 -6z m-4280 -19 c0 -8 -4 -15 -10 -15 -5 0 -7 7 -4 15
4 8 8 15 10 15 2 0 4 -7 4 -15z m-30 -40 c0 -14 -4 -25 -10 -25 -5 0 -10 11
-10 25 0 14 5 25 10 25 6 0 10 -11 10 -25z m4390 5 c0 -5 -7 -10 -15 -10 -8 0
-15 5 -15 10 0 6 7 10 15 10 8 0 15 -4 15 -10z m78 -25 c-3 -3 -9 2 -12 12 -6
14 -5 15 5 6 7 -7 10 -15 7 -18z m32 -15 c0 -5 -8 -10 -17 -10 -15 0 -16 2 -3
10 19 12 20 12 20 0z m-4540 -20 c-8 -5 -17 -7 -19 -4 -3 3 1 9 9 14 8 5 17 7
19 4 3 -3 -1 -9 -9 -14z m4661 -77 c-8 -15 -10 -15 -11 -2 0 17 10 32 18 25 2
-3 -1 -13 -7 -23z m-64 -9 c-3 -3 -12 -4 -19 -1 -8 3 -5 6 6 6 11 1 17 -2 13
-5z m-4554 -34 c3 -11 2 -20 -3 -20 -4 0 -10 9 -13 20 -3 11 -2 20 3 20 4 0
10 -9 13 -20z m-43 -15 c0 -14 -4 -25 -10 -25 -11 0 -14 33 -3 43 11 11 13 8
13 -18z m4689 -65 c1 -34 -1 -50 -8 -45 -6 3 -11 29 -11 56 0 65 16 56 19 -11z
m-4669 30 c0 -11 -7 -20 -15 -20 -8 0 -15 -5 -15 -11 0 -5 -4 -8 -9 -5 -5 4 0
17 12 31 27 30 27 30 27 5z m4730 -20 c0 -5 -2 -10 -4 -10 -3 0 -8 5 -11 10
-3 6 -1 10 4 10 6 0 11 -4 11 -10z m-4547 -197 c-7 -2 -19 -2 -25 0 -7 3 -2 5
12 5 14 0 19 -2 13 -5z m-223 -39 c-18 -21 -24 -10 -8 15 7 12 14 17 16 11 2
-6 -2 -17 -8 -26z m41 -31 c13 -16 12 -17 -3 -4 -10 7 -18 15 -18 17 0 8 8 3
21 -13z m-210 -96 c-1 -12 -15 -9 -19 4 -3 6 1 10 8 8 6 -3 11 -8 11 -12z
m-54 -159 c-3 -7 -5 -2 -5 12 0 14 2 19 5 13 2 -7 2 -19 0 -25z m30 -10 c-3
-7 -5 -2 -5 12 0 14 2 19 5 13 2 -7 2 -19 0 -25z m-113 -34 c3 -8 2 -12 -4 -9
-6 3 -10 10 -10 16 0 14 7 11 14 -7z m-1 -39 c-3 -9 -8 -14 -10 -11 -3 3 -2 9
2 15 9 16 15 13 8 -4z m-201 -97 c-8 -8 -9 -4 -5 13 4 13 8 18 11 10 2 -7 -1
-18 -6 -23z m40 0 c-9 -9 -12 -7 -12 12 0 19 3 21 12 12 9 -9 9 -15 0 -24z
m-135 -40 c-3 -8 -6 -5 -6 6 -1 11 2 17 5 13 3 -3 4 -12 1 -19z m146 -31 c-3
-20 -9 -37 -14 -37 -5 0 -7 6 -5 13 3 6 7 25 11 41 9 40 16 27 8 -17z m191
-158 c-6 -11 -24 -2 -24 11 0 5 7 7 15 4 8 -4 12 -10 9 -15z m-152 -21 c-7 -7
-12 -8 -12 -2 0 6 3 14 7 17 3 4 9 5 12 2 2 -3 -1 -11 -7 -17z m172 -12 c-3
-9 -10 -16 -15 -16 -6 0 -5 9 1 21 13 24 24 20 14 -5z m756 10 c0 -3 -4 -8
-10 -11 -5 -3 -10 -1 -10 4 0 6 5 11 10 11 6 0 10 -2 10 -4z m120 -16 c-20
-13 -53 -13 -45 0 3 6 18 10 33 10 21 0 24 -2 12 -10z m67 -12 c-3 -8 -6 -5
-6 6 -1 11 2 17 5 13 3 -3 4 -12 1 -19z m73 18 c0 -3 -4 -8 -10 -11 -5 -3 -10
-1 -10 4 0 6 5 11 10 11 6 0 10 -2 10 -4z m-1136 -21 c3 -8 1 -15 -4 -15 -6 0
-10 7 -10 15 0 8 2 15 4 15 2 0 6 -7 10 -15z m1286 -107 c0 -5 -4 -8 -10 -8
-5 0 -10 10 -10 23 0 18 2 19 10 7 5 -8 10 -18 10 -22z m430 -269 c0 -5 -4 -9
-10 -9 -5 0 -10 7 -10 16 0 8 5 12 10 9 6 -3 10 -10 10 -16z m30 -47 c0 -13
-12 -22 -22 -16 -10 6 -1 24 13 24 5 0 9 -4 9 -8z m10 -66 c0 -22 -26 -26 -27
-5 -1 11 5 19 13 19 8 0 14 -6 14 -14z m2800 -101 c7 -8 8 -15 2 -15 -5 0 -15
7 -22 15 -7 8 -8 15 -2 15 5 0 15 -7 22 -15z m145 -85 c3 -5 2 -10 -4 -10 -5
0 -13 5 -16 10 -3 6 -2 10 4 10 5 0 13 -4 16 -10z m408 -11 c-7 -7 -19 -8 -30
-4 -16 7 -15 9 7 15 30 8 38 4 23 -11z m44 -25 c-3 -3 -12 -4 -19 -1 -8 3 -5
6 6 6 11 1 17 -2 13 -5z m-367 -26 c0 -13 -23 -5 -28 10 -2 7 2 10 12 6 9 -3
16 -11 16 -16z m320 -16 c0 -10 -6 -19 -14 -19 -11 0 -12 4 -3 19 7 10 13 18
14 18 2 0 3 -8 3 -18z m20 -42 c0 -5 -5 -10 -11 -10 -5 0 -7 5 -4 10 3 6 8 10
11 10 2 0 4 -4 4 -10z m-64 -37 c-10 -10 -19 5 -10 18 6 11 8 11 12 0 2 -7 1
-15 -2 -18z m77 -60 c-7 -2 -21 -2 -30 0 -10 3 -4 5 12 5 17 0 24 -2 18 -5z
m-2953 -153 c0 -5 -4 -10 -10 -10 -5 0 -10 5 -10 10 0 6 5 10 10 10 6 0 10 -4
10 -10z m197 -192 c-3 -8 -6 -5 -6 6 -1 11 2 17 5 13 3 -3 4 -12 1 -19z m74 7
c5 4 6 0 3 -8 -3 -9 -13 -13 -24 -10 -15 4 -16 8 -7 18 7 7 14 9 15 4 2 -5 8
-7 13 -4z m256 -327 c-3 -8 -6 -5 -6 6 -1 11 2 17 5 13 3 -3 4 -12 1 -19z"/>
<path d="M2775 4937 c-4 -10 -5 -21 -1 -24 10 -10 18 4 13 24 -4 17 -4 17 -12
0z"/>
<path d="M3025 4850 c3 -5 8 -10 11 -10 2 0 4 5 4 10 0 6 -5 10 -11 10 -5 0
-7 -4 -4 -10z"/>
<path d="M2648 4803 c7 -3 16 -2 19 1 4 3 -2 6 -13 5 -11 0 -14 -3 -6 -6z"/>
<path d="M3152 4440 c0 -14 2 -19 5 -12 2 6 2 18 0 25 -3 6 -5 1 -5 -13z"/>
<path d="M3100 4265 c0 -8 4 -15 9 -15 5 0 11 7 15 15 3 9 0 15 -9 15 -8 0
-15 -7 -15 -15z"/>
<path d="M2920 3930 c0 -5 6 -10 14 -10 8 0 23 -3 33 -6 16 -5 16 -4 -1 10
-22 18 -46 21 -46 6z"/>
<path d="M2911 3894 c0 -11 3 -14 6 -6 3 7 2 16 -1 19 -3 4 -6 -2 -5 -13z"/>
<path d="M2830 3738 c-12 -22 -12 -22 6 -6 10 10 15 20 12 24 -4 3 -12 -5 -18
-18z"/>
<path d="M2251 3654 c0 -11 3 -14 6 -6 3 7 2 16 -1 19 -3 4 -6 -2 -5 -13z"/>
<path d="M3228 7183 c7 -3 16 -2 19 1 4 3 -2 6 -13 5 -11 0 -14 -3 -6 -6z"/>
<path d="M3178 7173 c7 -3 16 -2 19 1 4 3 -2 6 -13 5 -11 0 -14 -3 -6 -6z"/>
<path d="M3070 7089 c0 -5 5 -7 10 -4 6 3 10 8 10 11 0 2 -4 4 -10 4 -5 0 -10
-5 -10 -11z"/>
<path d="M2337 6749 c7 -7 15 -10 18 -7 3 3 -2 9 -12 12 -14 6 -15 5 -6 -5z"/>
<path d="M2180 6690 c0 -6 7 -10 15 -10 8 0 15 2 15 4 0 2 -7 6 -15 10 -8 3
-15 1 -15 -4z"/>
<path d="M2142 6679 c2 -7 10 -15 17 -17 8 -3 12 1 9 9 -2 7 -10 15 -17 17 -8
3 -12 -1 -9 -9z"/>
<path d="M1728 6643 c7 -3 16 -2 19 1 4 3 -2 6 -13 5 -11 0 -14 -3 -6 -6z"/>
<path d="M1543 6633 c15 -2 37 -2 50 0 12 2 0 4 -28 4 -27 0 -38 -2 -22 -4z"/>
<path d="M1283 6623 c9 -2 23 -2 30 0 6 3 -1 5 -18 5 -16 0 -22 -2 -12 -5z"/>
<path d="M1518 6613 c7 -3 16 -2 19 1 4 3 -2 6 -13 5 -11 0 -14 -3 -6 -6z"/>
<path d="M1268 6583 c7 -3 16 -2 19 1 4 3 -2 6 -13 5 -11 0 -14 -3 -6 -6z"/>
<path d="M1200 5773 c0 -5 11 -24 25 -43 14 -19 25 -31 25 -27 0 3 -11 23 -25
43 -14 20 -25 33 -25 27z"/>
<path d="M2030 5694 c0 -8 5 -12 10 -9 6 4 8 11 5 16 -9 14 -15 11 -15 -7z"/>
<path d="M1950 5614 c0 -9 -8 -23 -17 -30 -19 -14 -6 -19 13 -6 16 11 24 41
14 47 -6 4 -10 -1 -10 -11z"/>
<path d="M2343 5573 c9 -2 25 -2 35 0 9 3 1 5 -18 5 -19 0 -27 -2 -17 -5z"/>
<path d="M2443 5552 c-3 -7 -1 -18 5 -24 13 -13 42 6 42 28 0 17 -41 14 -47
-4z"/>
<path d="M1870 5540 c0 -5 5 -10 10 -10 6 0 10 5 10 10 0 6 -4 10 -10 10 -5 0
-10 -4 -10 -10z"/>
<path d="M1857 5488 c8 -44 13 -48 13 -10 0 17 -4 34 -10 37 -6 4 -7 -6 -3
-27z"/>
<path d="M2220 5479 c0 -5 5 -7 10 -4 6 3 10 8 10 11 0 2 -4 4 -10 4 -5 0 -10
-5 -10 -11z"/>
<path d="M2472 5444 c-12 -8 -22 -21 -21 -27 0 -9 2 -9 6 1 2 6 10 12 17 12 7
0 21 7 32 15 27 21 -4 20 -34 -1z"/>
<path d="M6581 5364 c0 -11 3 -14 6 -6 3 7 2 16 -1 19 -3 4 -6 -2 -5 -13z"/>
<path d="M6785 5340 c-3 -5 -1 -10 4 -10 6 0 11 5 11 10 0 6 -2 10 -4 10 -3 0
-8 -4 -11 -10z"/>
<path d="M6577 5326 c-4 -10 -7 -25 -6 -34 0 -11 4 -9 10 7 5 13 8 29 6 35 -2
5 -6 2 -10 -8z"/>
<path d="M2648 5253 c7 -3 16 -2 19 1 4 3 -2 6 -13 5 -11 0 -14 -3 -6 -6z"/>
<path d="M7106 5251 c-4 -7 -5 -15 -2 -18 9 -9 19 4 14 18 -4 11 -6 11 -12 0z"/>
<path d="M6546 5234 c-9 -25 -2 -26 17 -4 13 16 14 20 3 20 -8 0 -17 -7 -20
-16z"/>
<path d="M6555 5200 c-3 -5 1 -10 10 -10 9 0 13 5 10 10 -3 6 -8 10 -10 10 -2
0 -7 -4 -10 -10z"/>
<path d="M6876 5191 c-3 -5 0 -14 8 -20 10 -9 15 -8 19 3 9 22 -15 37 -27 17z"/>
<path d="M6930 5189 c0 -5 5 -7 10 -4 6 3 10 8 10 11 0 2 -4 4 -10 4 -5 0 -10
-5 -10 -11z"/>
<path d="M6825 5161 c-9 -15 12 -26 55 -28 36 -2 40 0 23 7 -13 5 -23 13 -23
18 0 11 -48 13 -55 3z"/>
<path d="M1890 5089 c-8 -5 -13 -9 -10 -10 3 0 13 -2 23 -4 9 -2 17 1 17 5 0
15 -15 19 -30 9z"/>
<path d="M1895 5050 c3 -5 10 -10 16 -10 5 0 9 5 9 10 0 6 -7 10 -16 10 -8 0
-12 -4 -9 -10z"/>
<path d="M1902 5021 c-11 -7 -10 -9 3 -14 9 -4 14 -3 10 2 -3 5 1 12 7 14 7 3
9 6 3 6 -5 0 -16 -3 -23 -8z"/>
<path d="M1765 4340 c-3 -5 -1 -10 4 -10 6 0 11 5 11 10 0 6 -2 10 -4 10 -3 0
-8 -4 -11 -10z"/>
<path d="M1798 3733 c6 -2 18 -2 25 0 6 3 1 5 -13 5 -14 0 -19 -2 -12 -5z"/>
<path d="M1928 3593 c7 -3 16 -2 19 1 4 3 -2 6 -13 5 -11 0 -14 -3 -6 -6z"/>
<path d="M2235 3430 c-3 -5 1 -10 10 -10 9 0 13 5 10 10 -3 6 -8 10 -10 10 -2
0 -7 -4 -10 -10z"/>
<path d="M1830 3313 c-14 -3 -29 -9 -35 -15 -7 -6 -1 -7 15 -3 14 3 48 10 75
14 48 8 49 9 10 8 -22 0 -51 -2 -65 -4z"/>
<path d="M6330 3189 c0 -5 5 -7 10 -4 6 3 10 8 10 11 0 2 -4 4 -10 4 -5 0 -10
-5 -10 -11z"/>
<path d="M6217 3120 c3 -11 7 -20 9 -20 2 0 4 9 4 20 0 11 -4 20 -9 20 -5 0
-7 -9 -4 -20z"/>
<path d="M6470 3110 c-13 -8 -12 -10 3 -10 9 0 17 5 17 10 0 12 -1 12 -20 0z"/>
<path d="M6547 3096 c-22 -33 -11 -39 19 -9 28 28 29 33 10 33 -7 0 -21 -11
-29 -24z"/>
<path d="M6155 3090 c3 -5 8 -10 11 -10 2 0 4 5 4 10 0 6 -5 10 -11 10 -5 0
-7 -4 -4 -10z"/>
<path d="M6597 3053 c-10 -9 -9 -33 1 -33 4 0 8 9 9 20 2 21 0 24 -10 13z"/>
<path d="M2280 3009 c0 -5 5 -7 10 -4 6 3 10 8 10 11 0 2 -4 4 -10 4 -5 0 -10
-5 -10 -11z"/>
<path d="M6680 2988 c0 -10 -5 -18 -12 -18 -6 0 -9 -3 -5 -6 3 -3 12 -2 21 3
10 6 12 13 6 23 -8 13 -10 12 -10 -2z"/>
<path d="M2267 2983 c-4 -3 -7 -11 -7 -17 0 -6 5 -5 12 2 6 6 9 14 7 17 -3 3
-9 2 -12 -2z"/>
<path d="M2211 2954 c0 -11 3 -14 6 -6 3 7 2 16 -1 19 -3 4 -6 -2 -5 -13z"/>
<path d="M6711 2943 c-1 -12 -9 -27 -18 -32 -16 -9 -16 -10 -2 -11 24 0 38 22
28 45 -7 19 -8 19 -8 -2z"/>
<path d="M2263 2911 c-13 -11 -23 -24 -23 -31 0 -6 -4 -9 -9 -6 -5 3 -14 -1
-20 -8 -8 -10 -9 -16 -1 -21 5 -3 10 -1 10 4 0 6 6 11 13 11 8 0 20 11 27 25
14 27 43 35 34 10 -4 -8 -10 -15 -15 -15 -5 0 -9 -6 -9 -14 0 -8 -6 -17 -12
-19 -8 -3 -6 -6 5 -6 9 -1 17 6 17 14 0 8 6 12 14 9 19 -7 28 23 13 46 -14 24
-16 24 -44 1z"/>
<path d="M6805 2900 c3 -5 11 -10 16 -10 6 0 7 5 4 10 -3 6 -11 10 -16 10 -6
0 -7 -4 -4 -10z"/>
<path d="M6800 2829 c0 -5 5 -7 10 -4 6 3 10 8 10 11 0 2 -4 4 -10 4 -5 0 -10
-5 -10 -11z"/>
<path d="M6870 2784 c0 -8 5 -12 10 -9 6 4 8 11 5 16 -9 14 -15 11 -15 -7z"/>
<path d="M6935 2791 c-6 -11 9 -23 19 -14 9 9 7 23 -3 23 -6 0 -12 -4 -16 -9z"/>
<path d="M6970 2680 c0 -5 5 -10 11 -10 5 0 7 5 4 10 -3 6 -8 10 -11 10 -2 0
-4 -4 -4 -10z"/>
<path d="M2340 2621 c0 -5 7 -22 15 -37 14 -27 15 -27 15 -6 0 12 -5 22 -11
22 -6 0 -9 7 -5 15 3 8 1 15 -4 15 -6 0 -10 -4 -10 -9z"/>
<path d="M5960 2564 c0 -8 5 -12 10 -9 6 4 8 11 5 16 -9 14 -15 11 -15 -7z"/>
<path d="M7050 2530 c0 -5 5 -10 10 -10 6 0 10 5 10 10 0 6 -4 10 -10 10 -5 0
-10 -4 -10 -10z"/>
<path d="M7087 2506 c-3 -8 -2 -18 4 -22 16 -9 22 2 11 21 -8 15 -10 16 -15 1z"/>
<path d="M2227 2453 c-4 -3 -7 -13 -7 -22 1 -13 3 -13 11 2 11 19 8 33 -4 20z"/>
<path d="M7116 2367 c3 -10 9 -15 12 -12 3 3 0 11 -7 18 -10 9 -11 8 -5 -6z"/>
<path d="M2051 2344 c0 -11 3 -14 6 -6 3 7 2 16 -1 19 -3 4 -6 -2 -5 -13z"/>
<path d="M7191 2304 c0 -11 3 -14 6 -6 3 7 2 16 -1 19 -3 4 -6 -2 -5 -13z"/>
<path d="M7120 2240 c-9 -6 -10 -10 -3 -10 6 0 15 5 18 10 8 12 4 12 -15 0z"/>
<path d="M5992 2190 c0 -14 2 -19 5 -12 2 6 2 18 0 25 -3 6 -5 1 -5 -13z"/>
<path d="M7041 2194 c0 -11 3 -14 6 -6 3 7 2 16 -1 19 -3 4 -6 -2 -5 -13z"/>
<path d="M6007 2163 c-4 -3 -7 -13 -7 -22 1 -13 3 -13 11 2 11 19 8 33 -4 20z"/>
<path d="M1916 2134 c-4 -9 -4 -19 -1 -22 2 -3 7 3 11 12 4 9 4 19 1 22 -2 3
-7 -3 -11 -12z"/>
<path d="M1781 2114 c0 -11 3 -14 6 -6 3 7 2 16 -1 19 -3 4 -6 -2 -5 -13z"/>
<path d="M1816 2105 c-4 -14 -2 -33 3 -43 8 -13 10 -8 11 26 0 48 -5 54 -14
17z"/>
<path d="M1791 2074 c0 -11 3 -14 6 -6 3 7 2 16 -1 19 -3 4 -6 -2 -5 -13z"/>
<path d="M6041 2050 c0 -14 4 -32 9 -40 9 -13 10 -13 9 0 -1 8 -5 26 -9 40
l-8 25 -1 -25z"/>
<path d="M1677 2019 c3 -24 7 -46 9 -48 9 -10 3 65 -5 78 -6 10 -8 -1 -4 -30z"/>
<path d="M7082 2020 c0 -14 2 -19 5 -12 2 6 2 18 0 25 -3 6 -5 1 -5 -13z"/>
<path d="M7146 2021 c-4 -5 -2 -12 3 -15 5 -4 12 -2 15 3 4 5 2 12 -3 15 -5 4
-12 2 -15 -3z"/>
<path d="M6040 1981 c0 -6 5 -13 10 -16 6 -3 10 1 10 9 0 9 -4 16 -10 16 -5 0
-10 -4 -10 -9z"/>
<path d="M1701 1924 c0 -11 3 -14 6 -6 3 7 2 16 -1 19 -3 4 -6 -2 -5 -13z"/>
<path d="M1731 1933 c-2 -19 19 -66 26 -60 3 4 14 -3 24 -15 13 -14 19 -16 19
-7 0 17 -15 41 -24 40 -18 -3 -23 1 -33 27 -6 15 -11 22 -12 15z"/>
<path d="M6090 1860 c0 -5 5 -10 11 -10 5 0 7 5 4 10 -3 6 -8 10 -11 10 -2 0
-4 -4 -4 -10z"/>
<path d="M7180 1818 c0 -9 5 -20 10 -23 13 -8 13 5 0 25 -8 13 -10 13 -10 -2z"/>
<path d="M7149 1778 c-6 -21 -5 -38 2 -38 5 0 9 9 9 20 0 16 -7 28 -11 18z"/>
<path d="M2651 1724 c0 -11 3 -14 6 -6 3 7 2 16 -1 19 -3 4 -6 -2 -5 -13z"/>
<path d="M2690 1720 c-11 -8 -7 -9 15 -4 37 8 45 14 19 14 -10 0 -26 -5 -34
-10z"/>
<path d="M3010 1690 c0 -5 10 -10 23 -10 18 0 19 2 7 10 -19 13 -30 13 -30 0z"/>
<path d="M2130 1669 c0 -5 5 -7 10 -4 6 3 10 8 10 11 0 2 -4 4 -10 4 -5 0 -10
-5 -10 -11z"/>
<path d="M2185 1670 c3 -5 8 -10 11 -10 2 0 4 5 4 10 0 6 -5 10 -11 10 -5 0
-7 -4 -4 -10z"/>
<path d="M3120 1669 c0 -5 9 -9 20 -9 11 0 20 2 20 4 0 2 -9 6 -20 9 -11 3
-20 1 -20 -4z"/>
<path d="M2066 1661 c-3 -5 1 -11 9 -14 9 -4 12 -1 8 9 -6 16 -10 17 -17 5z"/>
<path d="M2320 1666 c0 -2 9 -6 20 -9 11 -3 18 -1 14 4 -5 9 -34 13 -34 5z"/>
<path d="M7122 1550 c0 -14 2 -19 5 -12 2 6 2 18 0 25 -3 6 -5 1 -5 -13z"/>
<path d="M7187 1493 c-2 -10 -8 -26 -12 -37 -6 -14 -4 -17 5 -14 8 2 15 19 17
36 4 35 -2 43 -10 15z"/>
<path d="M7191 1414 c0 -11 3 -14 6 -6 3 7 2 16 -1 19 -3 4 -6 -2 -5 -13z"/>
<path d="M7100 1395 c0 -8 2 -15 4 -15 2 0 6 7 10 15 3 8 1 15 -4 15 -6 0 -10
-7 -10 -15z"/>
<path d="M7169 1340 c-1 -11 -2 -26 -3 -32 -1 -7 0 -17 3 -23 11 -20 10 -40
-2 -47 -8 -5 -4 -8 9 -8 20 0 21 6 22 65 0 49 -3 65 -14 65 -8 0 -15 -9 -15
-20z"/>
<path d="M3690 1249 c0 -5 5 -7 10 -4 6 3 10 8 10 11 0 2 -4 4 -10 4 -5 0 -10
-5 -10 -11z"/>
<path d="M7120 1222 c0 -7 5 -12 10 -12 7 0 7 -6 0 -20 -6 -11 -7 -20 -1 -20
17 0 22 33 6 49 -10 10 -15 11 -15 3z"/>
<path d="M7022 1200 c0 -14 2 -19 5 -12 2 6 2 18 0 25 -3 6 -5 1 -5 -13z"/>
<path d="M7180 1150 c0 -5 5 -10 10 -10 6 0 10 5 10 10 0 6 -4 10 -10 10 -5 0
-10 -4 -10 -10z"/>
<path d="M7031 1104 c0 -11 3 -14 6 -6 3 7 2 16 -1 19 -3 4 -6 -2 -5 -13z"/>
<path d="M7010 1040 c-9 -6 -10 -10 -3 -10 6 0 15 5 18 10 8 12 4 12 -15 0z"/>
<path d="M4198 604 c-7 -6 10 -64 23 -78 13 -14 11 2 -4 47 -8 20 -16 35 -19
31z"/>
<path d="M4275 410 c3 -5 8 -10 11 -10 2 0 4 5 4 10 0 6 -5 10 -11 10 -5 0 -7
-4 -4 -10z"/>
<path d="M4335 410 c-3 -5 1 -10 9 -10 9 0 16 5 16 10 0 6 -4 10 -9 10 -6 0
-13 -4 -16 -10z"/>
<path d="M4420 399 c0 -5 5 -7 10 -4 6 3 10 8 10 11 0 2 -4 4 -10 4 -5 0 -10
-5 -10 -11z"/>
<path d="M4380 385 c0 -8 7 -15 16 -15 14 0 14 3 4 15 -7 8 -14 15 -16 15 -2
0 -4 -7 -4 -15z"/>
<path d="M4210 340 c0 -5 5 -10 10 -10 6 0 10 5 10 10 0 6 -4 10 -10 10 -5 0
-10 -4 -10 -10z"/>
<path d="M4265 330 c3 -5 8 -10 11 -10 2 0 4 5 4 10 0 6 -5 10 -11 10 -5 0 -7
-4 -4 -10z"/>
<path d="M4270 289 c0 -5 5 -7 10 -4 6 3 10 8 10 11 0 2 -4 4 -10 4 -5 0 -10
-5 -10 -11z"/>
<path d="M4350 289 c0 -5 5 -7 10 -4 6 3 10 8 10 11 0 2 -4 4 -10 4 -5 0 -10
-5 -10 -11z"/>
<path d="M4305 280 c-3 -5 -1 -10 4 -10 6 0 11 5 11 10 0 6 -2 10 -4 10 -3 0
-8 -4 -11 -10z"/>
<path d="M4255 210 c3 -5 8 -10 11 -10 2 0 4 5 4 10 0 6 -5 10 -11 10 -5 0 -7
-4 -4 -10z"/>
<path d="M4150 159 c0 -5 5 -7 10 -4 6 3 10 8 10 11 0 2 -4 4 -10 4 -5 0 -10
-5 -10 -11z"/>
<path d="M4190 66 c7 -7 13 -7 20 0 6 6 3 10 -10 10 -13 0 -16 -4 -10 -10z"/>
</g>
</svg>
